HIERARCHY
ROOT Hips
{
	OFFSET 0.000000 0.000000 0.000000
	CHANNELS 6 Xposition Yposition Zposition Xrotation Yrotation Zrotation
	JOINT LeftUpLeg_virtual
	{
		OFFSET 0.000000 0.000000 0.000000
		CHANNELS 3 Xrotation Yrotation Zrotation
		JOINT LeftUpLeg
		{
			OFFSET 13.026900 -6.336304 -1.092800
			CHANNELS 3 Xrotation Yrotation Zrotation
			JOINT LeftLeg
			{
				OFFSET 0.524474 -46.096886 9.782700
				CHANNELS 3 Xrotation Yrotation Zrotation
				JOINT LeftFoot
				{
					OFFSET -0.524474 -53.427422 -12.948200
					CHANNELS 3 Xrotation Yrotation Zrotation
					JOINT LeftToeBase
					{
						OFFSET 0.192200 -14.009700 16.364100
						CHANNELS 3 Xrotation Yrotation Zrotation
						JOINT LeftToe_End
						{
							OFFSET -1.784700 -0.561700 9.474800
							CHANNELS 3 Xrotation Yrotation Zrotation
							End Site
							{
								OFFSET 0 0 0
							}
						}
					}
				}
			}
		}
	}
	JOINT RightUpLeg_virtual
	{
		OFFSET 0.000000 0.000000 0.000000
		CHANNELS 3 Xrotation Yrotation Zrotation
		JOINT RightUpLeg
		{
			OFFSET -12.883000 -6.336304 -1.092800
			CHANNELS 3 Xrotation Yrotation Zrotation
			JOINT RightLeg
			{
				OFFSET -0.524587 -46.096825 9.782800
				CHANNELS 3 Xrotation Yrotation Zrotation
				JOINT RightFoot
				{
					OFFSET 0.524587 -53.427383 -12.948300
					CHANNELS 3 Xrotation Yrotation Zrotation
					JOINT RightToeBase
					{
						OFFSET -0.192200 -14.009700 16.364100
						CHANNELS 3 Xrotation Yrotation Zrotation
						JOINT RightToe_End
						{
							OFFSET 1.784700 -0.561700 9.474800
							CHANNELS 3 Xrotation Yrotation Zrotation
							End Site
							{
								OFFSET 0 0 0
							}
						}
					}
				}
			}
		}
	}
	JOINT Spine_virtual
	{
		OFFSET 0.000000 0.000000 0.000000
		CHANNELS 3 Xrotation Yrotation Zrotation
		JOINT Spine
		{
			OFFSET 0.072000 7.257294 -0.789700
			CHANNELS 3 Xrotation Yrotation Zrotation
			JOINT Spine1
			{
				OFFSET 0.000000 12.508769 -0.658067
				CHANNELS 3 Xrotation Yrotation Zrotation
				JOINT Spine1_split
				{
					OFFSET 0.000000 12.508769 -0.658067
					CHANNELS 3 Xrotation Yrotation Zrotation
					JOINT Spine2
					{
						OFFSET 0.000000 12.508769 -0.658067
						CHANNELS 3 Xrotation Yrotation Zrotation
						JOINT Neck_virtual
						{
							OFFSET 0.000000 0.000000 0.000000
							CHANNELS 3 Xrotation Yrotation Zrotation
							JOINT Neck
							{
								OFFSET 0.000000 14.033295 7.520400
								CHANNELS 3 Xrotation Yrotation Zrotation
								JOINT Head
								{
									OFFSET 0.000000 8.198502 5.703100
									CHANNELS 3 Xrotation Yrotation Zrotation
									JOINT HeadTop_End
									{
										OFFSET 0.000000 17.760803 13.332701
										CHANNELS 3 Xrotation Yrotation Zrotation
										End Site
										{
											OFFSET 0 0 0
										}
									}
								}
							}
						}
						JOINT LeftShoulder_virtual
						{
							OFFSET 0.000000 0.000000 0.000000
							CHANNELS 3 Xrotation Yrotation Zrotation
							JOINT LeftShoulder
							{
								OFFSET 6.292450 5.785301 -0.669000
								CHANNELS 3 Xrotation Yrotation Zrotation
								JOINT LeftShoulder_split
								{
									OFFSET 6.292450 5.785301 -0.669000
									CHANNELS 3 Xrotation Yrotation Zrotation
									JOINT LeftArm
									{
										OFFSET 13.907140 -6.093903 1.965100
										CHANNELS 3 Xrotation Yrotation Zrotation
										JOINT LeftForeArm
										{
											OFFSET 34.140198 0.000000 0.000000
											CHANNELS 3 Xrotation Yrotation Zrotation
											JOINT LeftHand
											{
												OFFSET 40.960209 0.000000 0.000000
												CHANNELS 3 Xrotation Yrotation Zrotation
												End Site
												{
													OFFSET 0 0 0
												}
											}
										}
									}
								}
							}
						}
						JOINT RightShoulder_virtual
						{
							OFFSET 0.000000 0.000000 0.000000
							CHANNELS 3 Xrotation Yrotation Zrotation
							JOINT RightShoulder
							{
								OFFSET -6.292450 5.785301 -0.669000
								CHANNELS 3 Xrotation Yrotation Zrotation
								JOINT RightShoulder_split
								{
									OFFSET -6.292450 5.785301 -0.669000
									CHANNELS 3 Xrotation Yrotation Zrotation
									JOINT RightArm
									{
										OFFSET -13.907140 -6.093903 1.965100
										CHANNELS 3 Xrotation Yrotation Zrotation
										JOINT RightForeArm
										{
											OFFSET -34.140198 0.000000 0.000000
											CHANNELS 3 Xrotation Yrotation Zrotation
											JOINT RightHand
											{
												OFFSET -40.960209 0.000000 0.000000
												CHANNELS 3 Xrotation Yrotation Zrotation
												End Site
												{
													OFFSET 0 0 0
												}
											}
										}
									}
								}
							}
						}
					}
				}
			}
		}
	}
}
MOTION
Frames: 5
Frame Time: 0.03333333
9.292374 113.456879 16.717667 0.000000 0.000000 0.000000 -1.365351 9.030808 -3.894042 2.232944 11.324389 7.623583 16.638962 -6.052067 0.744505 -18.656293 2.165781 0.564186 -1.940658 -0.573638 -0.648693 0.000000 0.000000 0.000000 -0.715882 7.788570 -4.130282 -35.717856 -7.374136 -3.540237 30.140710 -1.648133 -0.937734 4.811117 2.897893 5.734721 1.601570 0.513103 0.794659 0.000000 0.000000 0.000000 -0.489310 8.527639 -4.014208 11.679140 -1.633025 2.332061 0.819367 -1.696931 0.870346 0.764672 -1.074930 0.490526 0.000000 0.000000 0.000000 -3.075260 -1.395549 1.027971 -0.997353 -0.151651 5.142987 -3.887050 -0.003069 -4.509827 0.000000 0.000000 0.000000 -3.270283 -1.598442 0.959627 0.851199 -1.025706 -3.248648 -1.586649 -0.662513 -0.123556 -0.805799 -10.073669 -74.612672 10.461752 -13.137238 -3.229766 0.000000 0.000000 0.000000 -3.326513 -1.862261 1.078333 2.385166 -0.151720 8.118697 -2.641143 1.124432 -1.552393 2.033578 10.497071 71.284348 11.192830 19.139869 3.203287 0.000000 0.000000 0.000000 
9.746745 114.323235 18.735386 0.000000 0.000000 0.000000 -1.190958 9.711261 -4.626854 4.165592 10.959074 7.564656 14.806026 -6.644636 1.042230 -18.434080 2.756734 0.083665 -2.792801 -0.638819 -0.757587 0.000000 0.000000 0.000000 -0.490041 8.207903 -4.907841 -36.477920 -6.985327 -2.423506 24.716247 0.026843 -1.244048 5.282935 3.470369 6.809795 1.944522 -0.561347 0.151630 0.000000 0.000000 0.000000 -0.198762 8.875793 -4.680003 11.722258 -1.776765 3.034977 0.550090 -1.890066 0.963689 0.722785 -0.996483 0.472775 0.000000 0.000000 0.000000 -3.217932 -1.546748 1.125708 -1.214383 -0.303064 4.980384 -4.157736 -0.066364 -5.235208 0.000000 0.000000 0.000000 -3.446652 -1.723957 0.947491 0.873837 -1.113794 -3.149986 -1.509825 -0.298441 -0.086515 -1.111838 -10.748537 -74.393027 10.703736 -13.642727 -3.623681 0.000000 0.000000 0.000000 -3.356222 -1.943729 1.158946 2.523776 -0.873394 8.097993 -2.654100 1.008000 -1.869913 2.142455 10.877588 71.154343 10.877606 18.740755 4.055138 0.000000 0.000000 0.000000 
10.113928 115.069229 20.913006 0.000000 0.000000 0.000000 -1.039317 10.445302 -5.285887 6.035251 10.050294 7.743955 13.156578 -7.021387 1.351841 -17.846419 3.756054 -0.298300 -3.309625 -0.686416 -1.048480 0.000000 0.000000 0.000000 -0.386151 9.015548 -5.634054 -36.995402 -6.473861 -1.618575 20.056133 1.661276 -1.385600 6.166683 4.149746 7.347427 1.564915 -1.618117 -0.386437 0.000000 0.000000 0.000000 -0.032899 9.187784 -5.311735 12.026968 -2.051745 3.555209 0.254278 -2.170510 1.200330 0.531262 -0.736366 0.461368 0.000000 0.000000 0.000000 -3.385960 -1.803994 1.371689 -1.612669 -0.422493 4.633049 -4.557953 -0.232022 -5.884716 0.000000 0.000000 0.000000 -3.671600 -1.939087 1.090455 0.883898 -1.274654 -3.333061 -1.499597 0.225622 -0.178085 -1.115071 -11.556832 -73.976782 10.839191 -14.002950 -4.071018 0.000000 0.000000 0.000000 -3.477695 -2.135815 1.352737 2.632143 -1.522634 7.851025 -2.580857 1.011109 -2.090943 2.372898 11.445727 71.356024 10.479338 18.762716 4.646662 0.000000 0.000000 0.000000 
10.312348 115.477692 23.271400 0.000000 0.000000 0.000000 -0.989236 11.101808 -5.856555 8.015442 8.927563 8.201401 11.722201 -7.114062 1.661956 -17.599874 4.961245 -0.549657 -3.231247 -0.748601 -1.361290 0.000000 0.000000 0.000000 -0.419535 9.994069 -6.227982 -37.526207 -6.013651 -1.227839 16.420287 2.794312 -1.359922 7.008214 4.564520 6.784984 1.577044 -2.499536 -0.678257 0.000000 0.000000 0.000000 -0.022829 9.332651 -5.859888 12.522489 -2.367197 3.862816 -0.052632 -2.488712 1.509157 0.411951 -0.319849 0.388208 0.000000 0.000000 0.000000 -3.538378 -2.116955 1.683559 -2.210562 -0.545425 4.227408 -5.091482 -0.493904 -6.400330 0.000000 0.000000 0.000000 -3.908189 -2.205064 1.335815 0.878430 -1.451525 -3.715492 -1.535053 0.671401 -0.237526 -0.917518 -12.462213 -73.445454 10.870283 -14.439688 -4.509986 0.000000 0.000000 0.000000 -3.645115 -2.400881 1.592048 2.685564 -2.078263 7.453423 -2.445278 1.093805 -2.111581 2.667406 12.119527 71.830258 10.005170 19.073985 5.034976 0.000000 0.000000 0.000000 
10.297881 115.354240 26.030123 0.000000 0.000000 0.000000 -1.004536 11.809368 -6.279578 9.985665 8.110996 8.932546 10.426916 -7.229515 1.862679 -18.024118 5.969291 -1.367078 -3.262861 -0.884652 -1.316271 0.000000 0.000000 0.000000 -0.474669 10.938565 -6.651131 -38.108491 -5.706525 -1.257523 14.363066 3.383624 -1.214607 7.928884 4.651918 5.322378 2.144504 -3.059558 -0.723261 0.000000 0.000000 0.000000 -0.251778 9.351151 -6.193032 13.132668 -2.643636 3.971629 -0.354297 -2.780056 1.801434 0.323134 0.302486 0.236544 0.000000 0.000000 0.000000 -3.662106 -2.419491 1.961932 -2.955912 -0.676375 3.891318 -5.679820 -0.817428 -6.755685 0.000000 0.000000 0.000000 -4.117805 -2.452532 1.586241 0.867367 -1.569794 -4.200838 -1.595136 0.728252 -0.248295 -0.651672 -13.346401 -72.908923 10.834383 -15.125939 -4.880063 0.000000 0.000000 0.000000 -3.794796 -2.658872 1.789712 2.700558 -2.534641 7.030600 -2.259958 1.241753 -1.908142 2.907753 12.732815 72.429396 9.482217 19.477801 5.296896 0.000000 0.000000 0.000000 
